USFL
nRows=140
nColumns=2
inDegrees=yes
endheader
time	soleus_r	
3.0625	 34.981859	
3.125	 34.978466	
3.1875	 34.948405	
3.25	 34.931314	
3.3125	 34.864702	
3.375	 34.903855	
3.4375	 34.944351	
3.5	 34.961616	
3.5625	 34.936763	
3.625	 34.887352	
3.6875	 34.783663	
3.75	 34.847802	
3.8125	 34.816837	
3.875	 34.940093	
3.9375	 34.847954	
4	 34.696854	
4.0625	 34.710569	
4.125	 34.654385	
4.1875	 34.666754	
4.25	 34.565564	
4.3125	 34.621730	
4.375	 34.672793	
4.4375	 34.580533	
4.5	 34.555583	
4.5625	 34.564685	
4.625	 34.545891	
4.6875	 33.609645	
4.75	 33.604773	
4.8125	 32.280496	
4.875	 32.294200	
4.9375	 32.328016	
5	 29.161292	
5.0625	 29.151384	
5.125	 29.171742	
5.1875	 27.161164	
5.25	 26.564596	
5.3125	 24.951957	
5.375	 24.995676	
5.4375	 25.085068	
5.5	 25.022061	
5.5625	 24.984855	
5.625	 24.795189	
5.6875	 24.745051	
5.75	 24.681026	
5.8125	 25.404485	
5.875	 23.640086	
5.9375	 23.621963	
6	 23.661886	
6.0625	 23.643642	
6.125	 23.614236	
6.1875	 22.261541	
6.25	 22.177291	
6.3125	 23.423769	
6.375	 23.368582	
6.4375	 23.489669	
6.5	 23.482235	
6.5625	 23.478036	
6.625	 23.427677	
6.6875	 23.499263	
6.75	 23.482383	
6.8125	 23.593578	
6.875	 23.980871	
6.9375	 23.896587	
7	 23.911053	
7.0625	 23.965545	
7.125	 24.035078	
7.1875	 24.067249	
7.25	 24.103147	
7.3125	 24.028533	
7.375	 24.046206	
7.4375	 24.109345	
7.5	 24.144418	
7.5625	 24.135513	
7.625	 24.135976	
7.6875	 24.082242	
7.75	 24.061510	
7.8125	 24.059977	
7.875	 24.059745	
7.9375	 24.130498	
8	 24.072838	
8.0625	 24.075071	
8.125	 24.110351	
8.1875	 24.130102	
8.25	 24.091690	
8.3125	 24.027524	
8.375	 24.030592	
8.4375	 24.036327	
8.5	 24.042958	
8.5625	 24.070249	
8.625	 24.060345	
8.6875	 24.098986	
8.75	 24.098471	
8.8125	 24.015162	
8.875	 24.061553	
8.9375	 24.049053	
9	 23.982952	
9.0625	 23.951060	
9.125	 23.933841	
9.1875	 23.984396	
9.25	 23.863698	
9.3125	 23.838130	
9.375	 23.840751	
9.4375	 23.813682	
9.5	 23.798546	
9.5625	 23.773894	
9.625	 25.411174	
9.6875	 27.498479	
9.75	 30.242246	
9.8125	 31.928304	
9.875	 33.957403	
9.9375	 35.730000	
10	 35.784847	
10.0625	 35.768240	
10.125	 35.792722	
10.1875	 35.809762	
10.25	 35.798000	
10.3125	 34.659702	
10.375	 34.573860	
10.4375	 34.498948	
10.5	 34.515986	
10.5625	 34.566396	
10.625	 34.550932	
10.6875	 34.560774	
10.75	 34.609940	
10.8125	 34.631445	
10.875	 34.632591	
10.9375	 34.534726	
11	 34.538882	
11.0625	 34.487291	
11.125	 34.440082	
11.1875	 34.475109	
11.25	 34.501825	
11.3125	 34.512567	
11.375	 34.470359	
11.4375	 34.525461	
11.5	 34.543023	
11.5625	 34.568372	
11.625	 34.551788	
11.6875	 34.522496	
11.75	 34.436362	
